<svg xmlns="http://www.w3.org/2000/svg" viewBox="0 0 800 400">
  <!-- Window background -->
  <rect width="800" height="400" fill="#1e1e2e"/>
  <!-- Title bar -->
  <rect width="800" height="36" fill="#181825"/>
  <!-- Traffic lights -->
  <circle cx="24" cy="18" r="7" fill="#f38ba8"/>
  <circle cx="46" cy="18" r="7" fill="#f9e2af"/>
  <circle cx="68" cy="18" r="7" fill="#a6e3a1"/>
  <!-- File tabs -->
  <rect x="90" y="8" width="120" height="22" rx="3" fill="#1e1e2e"/>
  <rect x="218" y="8" width="100" height="22" rx="3" fill="#11111b"/>
  <rect x="324" y="8" width="100" height="22" rx="3" fill="#11111b"/>
  <rect x="90" y="30" width="120" height="2" fill="#cba6f7"/>
  <!-- Tab labels (blocks) -->
  <rect x="100" y="16" width="70" height="8" rx="2" fill="#89b4fa"/>
  <rect x="228" y="16" width="60" height="8" rx="2" fill="#45475a"/>
  <rect x="334" y="16" width="60" height="8" rx="2" fill="#45475a"/>

  <!-- Sidebar -->
  <rect x="0" y="36" width="50" height="364" fill="#181825"/>
  <rect x="13" y="55" width="24" height="24" rx="4" fill="#cba6f7"/>
  <rect x="13" y="92" width="24" height="24" rx="4" fill="#313244"/>
  <rect x="13" y="129" width="24" height="24" rx="4" fill="#313244"/>
  <rect x="13" y="166" width="24" height="24" rx="4" fill="#313244"/>

  <!-- File explorer -->
  <rect x="50" y="36" width="170" height="364" fill="#181825"/>
  <rect x="58" y="50" width="90" height="8" rx="2" fill="#6c7086"/>
  <!-- Folder entries -->
  <rect x="58" y="72" width="16" height="16" rx="2" fill="#f9e2af"/>
  <rect x="80" y="76" width="80" height="8" rx="2" fill="#cba6f7"/>
  <rect x="70" y="96" width="16" height="16" rx="2" fill="#89b4fa" opacity="0.7"/>
  <rect x="92" y="100" width="65" height="8" rx="2" fill="#a6adc8"/>
  <rect x="70" y="117" width="16" height="16" rx="2" fill="#89b4fa" opacity="0.7"/>
  <rect x="92" y="121" width="55" height="8" rx="2" fill="#89b4fa"/>
  <rect x="70" y="138" width="16" height="16" rx="2" fill="#89b4fa" opacity="0.7"/>
  <rect x="92" y="142" width="70" height="8" rx="2" fill="#a6adc8"/>
  <rect x="58" y="162" width="16" height="16" rx="2" fill="#f9e2af"/>
  <rect x="80" y="166" width="60" height="8" rx="2" fill="#a6adc8"/>
  <rect x="70" y="183" width="16" height="16" rx="2" fill="#89b4fa" opacity="0.7"/>
  <rect x="92" y="187" width="75" height="8" rx="2" fill="#a6adc8"/>

  <!-- Line numbers strip -->
  <rect x="220" y="36" width="44" height="364" fill="#181825"/>
  <rect x="228" y="82"  width="20" height="7" rx="2" fill="#45475a"/>
  <rect x="228" y="100" width="20" height="7" rx="2" fill="#45475a"/>
  <rect x="228" y="118" width="20" height="7" rx="2" fill="#45475a"/>
  <rect x="228" y="136" width="20" height="7" rx="2" fill="#585b70"/>
  <rect x="228" y="154" width="20" height="7" rx="2" fill="#45475a"/>
  <rect x="228" y="172" width="20" height="7" rx="2" fill="#45475a"/>
  <rect x="228" y="190" width="20" height="7" rx="2" fill="#45475a"/>
  <rect x="228" y="208" width="20" height="7" rx="2" fill="#45475a"/>
  <rect x="228" y="226" width="20" height="7" rx="2" fill="#45475a"/>
  <rect x="228" y="244" width="20" height="7" rx="2" fill="#45475a"/>

  <!-- Code area -->
  <rect x="264" y="36" width="536" height="264" fill="#1e1e2e"/>

  <!-- Active line highlight -->
  <rect x="264" y="130" width="536" height="18" fill="#313244"/>

  <!-- Code lines as syntax-colored blocks -->
  <!-- Line 1: keyword + text + keyword + text -->
  <rect x="272" y="80"  width="42" height="8" rx="2" fill="#cba6f7"/>
  <rect x="320" y="80"  width="55" height="8" rx="2" fill="#a6adc8"/>
  <rect x="382" y="80"  width="18" height="8" rx="2" fill="#cba6f7"/>
  <rect x="406" y="80"  width="22" height="8" rx="2" fill="#a6adc8"/>

  <!-- Line 2 -->
  <rect x="272" y="98"  width="42" height="8" rx="2" fill="#cba6f7"/>
  <rect x="320" y="98"  width="48" height="8" rx="2" fill="#a6adc8"/>
  <rect x="374" y="98"  width="18" height="8" rx="2" fill="#cba6f7"/>
  <rect x="398" y="98"  width="22" height="8" rx="2" fill="#a6adc8"/>

  <!-- Line 3 (blank) -->

  <!-- Line 4: def (highlighted) -->
  <rect x="272" y="134" width="25" height="8" rx="2" fill="#cba6f7"/>
  <rect x="304" y="134" width="90" height="8" rx="2" fill="#89b4fa"/>
  <rect x="400" y="134" width="8"  height="8" rx="2" fill="#a6adc8"/>
  <rect x="415" y="134" width="30" height="8" rx="2" fill="#fab387"/>
  <rect x="451" y="134" width="8"  height="8" rx="2" fill="#a6adc8"/>

  <!-- Line 5: comment -->
  <rect x="288" y="152" width="220" height="8" rx="2" fill="#6c7086"/>

  <!-- Line 6 -->
  <rect x="288" y="170" width="45" height="8" rx="2" fill="#a6adc8"/>
  <rect x="340" y="170" width="12" height="8" rx="2" fill="#89dceb"/>
  <rect x="359" y="170" width="30" height="8" rx="2" fill="#a6adc8"/>
  <rect x="396" y="170" width="55" height="8" rx="2" fill="#a6e3a1"/>
  <rect x="458" y="170" width="15" height="8" rx="2" fill="#a6adc8"/>

  <!-- Line 7 -->
  <rect x="288" y="188" width="10" height="8" rx="2" fill="#a6adc8"/>
  <rect x="305" y="188" width="28" height="8" rx="2" fill="#89b4fa"/>
  <rect x="340" y="188" width="10" height="8" rx="2" fill="#a6adc8"/>
  <rect x="357" y="188" width="50" height="8" rx="2" fill="#a6e3a1"/>
  <rect x="414" y="188" width="10" height="8" rx="2" fill="#89dceb"/>
  <rect x="431" y="188" width="35" height="8" rx="2" fill="#a6e3a1"/>
  <rect x="473" y="188" width="10" height="8" rx="2" fill="#a6adc8"/>

  <!-- Line 8: return -->
  <rect x="288" y="206" width="38" height="8" rx="2" fill="#cba6f7"/>
  <rect x="333" y="206" width="50" height="8" rx="2" fill="#a6adc8"/>

  <!-- Line 9 -->
  <rect x="272" y="224" width="25" height="8" rx="2" fill="#cba6f7"/>
  <rect x="304" y="224" width="75" height="8" rx="2" fill="#89b4fa"/>
  <rect x="386" y="224" width="8"  height="8" rx="2" fill="#a6adc8"/>
  <rect x="401" y="224" width="20" height="8" rx="2" fill="#fab387"/>
  <rect x="428" y="224" width="8"  height="8" rx="2" fill="#a6adc8"/>

  <!-- Line 10 -->
  <rect x="288" y="242" width="180" height="8" rx="2" fill="#6c7086"/>

  <!-- Terminal pane -->
  <rect x="220" y="300" width="580" height="100" fill="#11111b"/>
  <rect x="220" y="300" width="580" height="26" fill="#181825"/>
  <!-- Terminal tabs -->
  <rect x="228" y="308" width="70" height="10" rx="2" fill="#cba6f7"/>
  <rect x="305" y="308" width="60" height="10" rx="2" fill="#45475a"/>
  <!-- Terminal content -->
  <rect x="228" y="336" width="14" height="9" rx="2" fill="#a6e3a1"/>
  <rect x="248" y="336" width="110" height="9" rx="2" fill="#a6adc8"/>
  <rect x="228" y="354" width="200" height="9" rx="2" fill="#a6adc8"/>
  <rect x="228" y="372" width="14" height="9" rx="2" fill="#a6e3a1"/>
  <rect x="248" y="372" width="150" height="9" rx="2" fill="#a6adc8"/>
  <rect x="228" y="390" width="14" height="9" rx="2" fill="#89b4fa"/>
  <rect x="248" y="390" width="8"  height="9" fill="#89b4fa" opacity="0.85"/>
</svg>
